<svg xmlns="http://www.w3.org/2000/svg" viewBox="0 0 193.75 161.21"><defs><style>.cls-1,.cls-3,.cls-4,.cls-5{fill:none;}.cls-1{stroke:#f9ad1f;}.cls-1,.cls-2,.cls-3,.cls-4,.cls-5{stroke-miterlimit:10;}.cls-2{fill:#04446b;}.cls-2,.cls-3{stroke:#1d1d1b;}.cls-4{stroke:#e94e37;}.cls-5{stroke:#e73a28;}</style></defs><title>MascotteFichier 2</title><g id="Calque_2" data-name="Calque 2"><g id="Calque_1-2" data-name="Calque 1"><path class="cls-1" d="M85.69,87.54l2.55-1.09a1,1,0,0,0,.57-1.31l-.73-1.34c-.34-.62.15-1.32,1-1.46l1.05-.16c.91-.14,1.4-.9,1-1.53L90,78.89"/><path class="cls-1" d="M72.37,85.54,74.47,84a.88.88,0,0,0,.1-1.38L73.4,81.46c-.54-.54-.3-1.31.49-1.61l1-.36c.83-.32,1-1.14.42-1.67l-1.74-1.47"/><path class="cls-1" d="M58.92,86.59l1.27-2a.93.93,0,0,0-.53-1.32l-1.61-.79a.92.92,0,0,1-.26-1.63l.74-.59a.94.94,0,0,0-.35-1.68l-2.3-.94"/></g><g id="Calque_2-2" data-name="Calque 2"><ellipse class="cls-2" cx="42.03" cy="111.41" rx="11.07" ry="5.22" transform="translate(-76.98 115.33) rotate(-71.22)"/><ellipse class="cls-2" cx="69.76" cy="119.41" rx="11.07" ry="5.22" transform="translate(-65.75 147.01) rotate(-71.22)"/><path class="cls-3" d="M58.81,100.64c5.54,0,6.31-3.48,6.31-3.48"/><path class="cls-3" d="M59.67,104.68c5.53,0,6.3-3.48,6.3-3.48"/><path class="cls-3" d="M86.5,109.65c5.54,0,6.31-3.48,6.31-3.48"/><path class="cls-3" d="M87.36,113.68c5.54,0,6.31-3.48,6.31-3.48"/><path class="cls-4" d="M32.84,137.34c6.44,18.87,28,13.23,31.47,10.93"/><path class="cls-3" d="M53.63,133.18s-10,1-1.61,4.69"/><path class="cls-5" d="M66.63,145.41s-5.22,3.58,0,6.76"/><path class="cls-4" d="M28.42,137.43s6,2,5.37-4.12"/><path class="cls-1" d="M3.78,77.92s17.33-2.19,28,21"/><path class="cls-1" d="M.13,65.5S21.93,59.62,35.64,96"/><path class="cls-1" d="M21,64.66S10.77,76.36,11,87.08"/><path class="cls-1" d="M26.34,69.34A30,30,0,0,0,16.92,89"/><path class="cls-1" d="M154.53,118s-21.75-14.21-42.85,1.65"/><path class="cls-1" d="M164.05,107.56c.22,1.38-20.53-19.31-51,5.12"/><path class="cls-1" d="M141.49,94.64s4.46,15.7-.7,25.38"/><path class="cls-1" d="M134.09,96.25s5,11,0,22.57"/><ellipse class="cls-3" cx="47.86" cy="110.58" rx="15.87" ry="10.45" transform="translate(-72.26 101.13) rotate(-62.1)"/><ellipse class="cls-3" cx="75.59" cy="118.58" rx="15.87" ry="10.45" transform="translate(-64.58 129.9) rotate(-62.1)"/><path class="cls-3" d="M112,118.19c.59-3.32,1.28-6,1.28-6l25.58-93.51a1.43,1.43,0,0,1,1.62-1c3.92.71,10.18,1.89,14.48,21,0,0,1,19.57,5.84,26.66,13,18.85,31.28,12.85,31.28,12.85-18.73-5.52-18.35-19.07-18.35-19.07s-1-9.13-2.11-30c-1-19.3-19.44-26.34-22.21-27.29a2.28,2.28,0,0,0-.68-.13L126.08.5a1.42,1.42,0,0,0-1.47,1.63C130.76,45,102.75,106.37,99.34,98.21,94.89,87.55,70.53,80,47.27,89.45,26,98.08,10.45,118,15.13,137.87c4.64,19.66,36.43,25.22,53,22C67.32,159,104.53,160.19,112,118.19Z"/></g></g></svg>